<svg width="548" height="185" viewBox="0 0 548 185" fill="none" xmlns="http://www.w3.org/2000/svg">
<path d="M445.005 163.484C498.35 81.8989 423.438 36.2869 379.313 23.6789C296.1 2.26835 318.49 55.6987 242.702 68.1019C166.914 80.5052 232.393 110.913 233.873 156.106C235.353 201.298 145.349 156.749 150.079 239.783C154.809 322.817 302.105 363.319 270.228 250.415C238.35 137.511 378.324 265.465 445.005 163.484Z" stroke="#F4F4F4" stroke-width="1.99175"/>
<path d="M413.044 165.48C454.104 102.621 396.486 67.5047 362.544 57.8041C298.535 41.333 315.745 82.485 257.439 92.059C199.132 101.633 249.497 125.039 250.623 159.851C251.75 194.663 182.523 160.37 186.14 224.33C189.757 288.291 303.06 319.452 278.567 232.489C254.073 145.526 361.72 244.054 413.044 165.48Z" stroke="#F4F4F4" stroke-width="1.99175"/>
<path d="M474.62 161.549C539.388 62.4295 448.476 7.04156 394.924 -8.2625C293.93 -34.2495 321.092 30.6493 229.102 45.7359C137.112 60.8224 216.578 97.7436 218.363 152.641C220.147 207.538 110.918 153.446 116.637 254.31C122.357 355.174 301.125 404.336 262.464 267.194C223.802 130.052 393.66 285.448 474.62 161.549Z" stroke="#F4F4F4" stroke-width="1.99175"/>
<path d="M499.471 160.03C573.777 46.4197 469.408 -17.1104 407.935 -34.6742C292.006 -64.5019 323.205 9.90935 217.624 27.1726C112.043 44.4359 203.267 86.7912 205.335 149.728C207.402 212.664 82.0096 150.613 88.6099 266.248C95.2103 381.883 300.418 438.307 255.994 281.07C211.57 123.833 406.588 302.042 499.471 160.03Z" stroke="#F4F4F4" stroke-width="1.99175"/>
<path d="M535.024 157.648C623.07 22.8646 499.51 -52.4352 426.724 -73.2371C289.459 -108.558 326.368 -20.3177 201.334 0.208398C76.3005 20.7345 184.305 70.9262 186.723 145.571C189.141 220.216 40.6852 146.68 48.4453 283.827C56.2053 420.974 299.178 487.796 246.649 301.326C194.119 114.855 424.967 326.127 535.024 157.648Z" stroke="#F4F4F4" stroke-width="1.99175"/>
<path d="M576.513 154.821C680.614 -4.77499 534.674 -93.8382 448.69 -118.42C286.534 -160.152 330.09 -55.7212 182.353 -31.3527C34.6162 -6.98409 162.193 52.3671 165.007 140.724C167.821 229.082 -7.53467 142.121 1.5554 304.459C10.6455 466.798 297.676 545.758 235.72 325.06C173.764 104.361 446.386 354.316 576.513 154.821Z" stroke="#F4F4F4" stroke-width="1.99175"/>
</svg>
