<svg width="960" height="2" viewBox="0 0 960 2" fill="none" xmlns="http://www.w3.org/2000/svg">
<path d="M0.999985 1.5C0.954428 1.5 0.911033 1.49403 0.870193 1.48312L0.741073 1.96616C0.396879 1.87415 0.125844 1.60311 0.0338412 1.25891L0.516883 1.1298C0.505966 1.08895 0.5 1.04556 0.5 1C0.5 0.954443 0.505966 0.911048 0.516883 0.870206L0.0338426 0.741087C0.125848 0.396891 0.396891 0.125848 0.741087 0.0338426L0.870206 0.516883C0.911048 0.505966 0.954443 0.5 1 0.5H2.99583V0H10.9792V0.5H14.9708V0H22.9542V0.5H26.9458V0H34.9292V0.5H38.9208V0H46.9042V0.5H50.8958V0H58.8792V0.5H62.8708V0H70.8542V0.5H74.8458V0H82.8292V0.5H86.8208V0H94.8042V0.5H98.7958V0H106.779V0.5H110.771V0H118.754V0.5H122.746V0H130.729V0.5H134.721V0H142.704V0.5H146.696V0H154.679V0.5H158.671V0H166.654V0.5H170.646V0H178.629V0.5H182.621V0H190.604V0.5H194.596V0H202.579V0.5H206.571V0H214.554V0.5H218.546V0H226.529V0.5H230.521V0H238.504V0.5H242.496V0H250.479V0.5H254.471V0H262.454V0.5H266.446V0H274.429V0.5H278.421V0H286.404V0.5H290.396V0H298.379V0.5H302.371V0H310.354V0.5H314.346V0H322.329V0.5H326.321V0H334.304V0.5H338.296V0H346.279V0.5H350.271V0H358.254V0.5H362.246V0H370.229V0.5H374.221V0H382.204V0.5H386.196V0H394.179V0.5H398.171V0H406.154V0.5H410.146V0H418.129V0.5H422.121V0H430.104V0.5H434.096V0H442.079V0.5H446.071V0H454.054V0.5H458.046V0H466.029V0.5H470.021V0H478.004V0.5H481.996V0H489.979V0.5H493.971V0H501.954V0.5H505.946V0H513.929V0.5H517.921V0H525.904V0.5H529.896V0H537.879V0.5H541.871V0H549.854V0.5H553.846V0H561.829V0.5H565.821V0H573.804V0.5H577.796V0H585.779V0.5H589.771V0H597.754V0.5H601.746V0H609.729V0.5H613.721V0H621.704V0.5H625.696V0H633.679V0.5H637.671V0H645.654V0.5H649.646V0H657.629V0.5H661.621V0H669.604V0.5H673.596V0H681.579V0.5H685.571V0H693.554V0.5H697.546V0H705.529V0.5H709.521V0H717.504V0.5H721.496V0H729.479V0.5H733.471V0H741.454V0.5H745.445V0H753.429V0.5H757.42V0H765.404V0.5H769.396V0H777.379V0.5H781.37V0H789.354V0.5H793.345V0H801.329V0.5H805.32V0H813.304V0.5H817.295V0H825.279V0.5H829.27V0H837.254V0.5H841.245V0H849.229V0.5H853.22V0H861.204V0.5H865.195V0H873.179V0.5H877.17V0H885.154V0.5H889.145V0H897.129V0.5H901.12V0H909.104V0.5H913.095V0H921.078V0.5H925.07V0H933.053V0.5H937.045V0H945.029V0.5H949.02V0H957.003V0.5H959C959.046 0.5 959.089 0.505966 959.13 0.516883L959.259 0.0338478C959.603 0.125858 959.874 0.396897 959.966 0.741087L959.483 0.870203C959.494 0.911045 959.5 0.954442 959.5 1C959.5 1.04556 959.494 1.08895 959.483 1.12979L959.966 1.25891C959.874 1.6031 959.603 1.87414 959.259 1.96615L959.13 1.48312C959.089 1.49403 959.046 1.5 959 1.5H957.004V2H949.021V1.5H945.029V2H937.046V1.5H933.054V2H925.071V1.5H921.079V2H913.096V1.5H909.104V2H901.121V1.5H897.129V2H889.146V1.5H885.154V2H877.171V1.5H873.179V2H865.196V1.5H861.204V2H853.221V1.5H849.229V2H841.246V1.5H837.254V2H829.271V1.5H825.279V2H817.296V1.5H813.304V2H805.321V1.5H801.329V2H793.346V1.5H789.354V2H781.371V1.5H777.379V2H769.396V1.5H765.404V2H757.421V1.5H753.429V2H745.446V1.5H741.454V2H733.471V1.5H729.479V2H721.496V1.5H717.504V2H709.521V1.5H705.529V2H697.546V1.5H693.554V2H685.571V1.5H681.579V2H673.596V1.5H669.604V2H661.621V1.5H657.629V2H649.646V1.5H645.654V2H637.671V1.5H633.679V2H625.696V1.5H621.704V2H613.721V1.5H609.729V2H601.746V1.5H597.754V2H589.771V1.5H585.779V2H577.796V1.5H573.804V2H565.821V1.5H561.829V2H553.846V1.5H549.854V2H541.871V1.5H537.879V2H529.896V1.5H525.904V2H517.921V1.5H513.929V2H505.946V1.5H501.954V2H493.971V1.5H489.979V2H481.996V1.5H478.004V2H470.021V1.5H466.029V2H458.046V1.5H454.054V2H446.071V1.5H442.079V2H434.096V1.5H430.104V2H422.121V1.5H418.129V2H410.146V1.5H406.154V2H398.171V1.5H394.179V2H386.196V1.5H382.204V2H374.221V1.5H370.229V2H362.246V1.5H358.254V2H350.271V1.5H346.279V2H338.296V1.5H334.304V2H326.321V1.5H322.329V2H314.346V1.5H310.354V2H302.371V1.5H298.379V2H290.396V1.5H286.404V2H278.421V1.5H274.429V2H266.446V1.5H262.454V2H254.471V1.5H250.479V2H242.496V1.5H238.504V2H230.521V1.5H226.529V2H218.546V1.5H214.554V2H206.571V1.5H202.579V2H194.596V1.5H190.605V2H182.621V1.5H178.63V2H170.646V1.5H166.655V2H158.671V1.5H154.68V2H146.696V1.5H142.705V2H134.721V1.5H130.73V2H122.746V1.5H118.755V2H110.771V1.5H106.78V2H98.7964V1.5H94.8047V2H86.8214V1.5H82.8297V2H74.8464V1.5H70.8548V2H62.8715V1.5H58.8798V2H50.8965V1.5H46.9048V2H38.9215V1.5H34.9298V2H26.9465V1.5H22.9549V2H14.9715V1.5H10.9799V2H2.99659V1.5H0.999985Z" stroke="#AAAAAA" stroke-dasharray="4 8"/>
</svg>
